<?xml version="1.0" encoding="UTF-8" standalone="no"?>
<!-- Generator: Adobe Illustrator 16.0.0, SVG Export Plug-In . SVG Version: 6.00 Build 0)  -->

<svg
   xmlns:dc="http://purl.org/dc/elements/1.1/"
   xmlns:cc="http://creativecommons.org/ns#"
   xmlns:rdf="http://www.w3.org/1999/02/22-rdf-syntax-ns#"
   xmlns:svg="http://www.w3.org/2000/svg"
   xmlns="http://www.w3.org/2000/svg"
   xmlns:xlink="http://www.w3.org/1999/xlink"
   xmlns:sodipodi="http://sodipodi.sourceforge.net/DTD/sodipodi-0.dtd"
   xmlns:inkscape="http://www.inkscape.org/namespaces/inkscape"
   version="1.1"
   id="Layer_1"
   x="0px"
   y="0px"
   width="1121.822"
   height="533.35498"
   viewBox="0 0 1121.822 533.35498"
   enable-background="new 0 0 1325 700"
   xml:space="preserve"
   inkscape:version="0.48.4 r9939"
   sodipodi:docname="jshttp.svg"><metadata
     id="metadata71"><rdf:RDF><cc:Work
         rdf:about=""><dc:format>image/svg+xml</dc:format><dc:type
           rdf:resource="http://purl.org/dc/dcmitype/StillImage" /></cc:Work></rdf:RDF></metadata><defs
     id="defs69" /><sodipodi:namedview
     pagecolor="#ffffff"
     bordercolor="#666666"
     borderopacity="1"
     objecttolerance="10"
     gridtolerance="10"
     guidetolerance="10"
     inkscape:pageopacity="0"
     inkscape:pageshadow="2"
     inkscape:window-width="640"
     inkscape:window-height="480"
     id="namedview67"
     showgrid="false"
     fit-margin-top="0"
     fit-margin-left="0"
     fit-margin-right="0"
     fit-margin-bottom="0"
     inkscape:zoom="0.22037736"
     inkscape:cx="559.641"
     inkscape:cy="86.187151"
     inkscape:window-x="65"
     inkscape:window-y="24"
     inkscape:window-maximized="0"
     inkscape:current-layer="Layer_1" /><g
     id="g3"
     transform="translate(-102.859,-84.338997)"><defs
       id="defs5"><rect
         id="SVGID_1_"
         x="102.859"
         y="84.338997"
         width="504.67001"
         height="504.44199" /></defs><clipPath
       id="SVGID_2_"><use
         xlink:href="#SVGID_1_"
         overflow="visible"
         id="use9"
         style="overflow:visible"
         x="0"
         y="0"
         width="1325"
         height="700" /></clipPath><g
       clip-path="url(#SVGID_2_)"
       id="g11"><defs
         id="defs13"><rect
           id="SVGID_3_"
           x="102.859"
           y="83.841003"
           width="505"
           height="505" /></defs><clipPath
         id="SVGID_4_"><use
           xlink:href="#SVGID_3_"
           overflow="visible"
           id="use17"
           style="overflow:visible"
           x="0"
           y="0"
           width="1325"
           height="700" /></clipPath><rect
         x="102.859"
         y="84.338997"
         clip-path="url(#SVGID_4_)"
         width="504.67001"
         height="504.44199"
         id="rect19"
         style="fill:#fbde34" /></g></g><g
     id="g21"
     transform="translate(-102.859,-84.338997)"><defs
       id="defs23"><rect
         id="SVGID_5_"
         x="102.859"
         y="83.841003"
         width="505"
         height="505" /></defs><clipPath
       id="SVGID_6_"><use
         xlink:href="#SVGID_5_"
         overflow="visible"
         id="use27"
         style="overflow:visible"
         x="0"
         y="0"
         width="1325"
         height="700" /></clipPath></g><g
     id="g29"
     transform="translate(-102.859,-84.338997)"><defs
       id="defs31"><rect
         id="SVGID_7_"
         x="102.859"
         y="84.338997"
         width="504.67001"
         height="504.44199" /></defs><clipPath
       id="SVGID_8_"><use
         xlink:href="#SVGID_7_"
         overflow="visible"
         id="use35"
         style="overflow:visible"
         x="0"
         y="0"
         width="1325"
         height="700" /></clipPath><g
       clip-path="url(#SVGID_8_)"
       id="g37"><defs
         id="defs39"><rect
           id="SVGID_9_"
           x="102.859"
           y="83.841003"
           width="505"
           height="505" /></defs><clipPath
         id="SVGID_10_"><use
           xlink:href="#SVGID_9_"
           overflow="visible"
           id="use43"
           style="overflow:visible"
           x="0"
           y="0"
           width="1325"
           height="700" /></clipPath></g></g><g
     id="g45"
     transform="translate(-102.859,-84.338997)"><defs
       id="defs47"><rect
         id="SVGID_11_"
         x="102.859"
         y="84.338997"
         width="505"
         height="505" /></defs><clipPath
       id="SVGID_12_"><use
         xlink:href="#SVGID_11_"
         overflow="visible"
         id="use51"
         style="overflow:visible"
         x="0"
         y="0"
         width="1325"
         height="700" /></clipPath><path
       clip-path="url(#SVGID_12_)"
       d="m 235.385,506.016 38.57,-23.342 c 7.44,13.193 14.209,24.355 30.445,24.355 15.562,0 25.375,-6.089 25.375,-29.769 V 316.22 h 47.363 v 161.714 c 0,49.057 -28.756,71.386 -70.709,71.386 -37.888,0 -59.88,-19.623 -71.044,-43.304"
       id="path53"
       inkscape:connector-curvature="0"
       style="fill:#343433" /><path
       clip-path="url(#SVGID_12_)"
       d="m 402.854,500.94 38.564,-22.328 c 10.152,16.578 23.347,28.758 46.689,28.758 19.625,0 32.139,-9.812 32.139,-23.346 0,-16.238 -12.854,-21.99 -34.508,-31.461 L 473.9,447.486 c -34.172,-14.546 -56.84,-32.814 -56.84,-71.383 0,-35.522 27.064,-62.59 69.355,-62.59 30.11,0 51.763,10.489 67.323,37.894 l -36.877,23.681 c -8.12,-14.546 -16.914,-20.297 -30.446,-20.297 -13.87,0 -22.668,8.796 -22.668,20.297 0,14.21 8.798,19.962 29.095,28.759 l 11.84,5.074 c 40.26,17.255 62.928,34.846 62.928,74.427 0,42.63 -33.493,65.973 -78.488,65.973 -43.979,-10e-4 -72.398,-20.975 -86.268,-48.381"
       id="path55"
       inkscape:connector-curvature="0"
       style="fill:#343433" /></g><g
     id="g57"
     transform="translate(-102.859,-84.338997)"><path
       d="m 653.976,315.962 h 45.636 v 108.71 c 8.789,-16.564 24.678,-25.691 44.622,-25.691 31.438,0 54.087,22.987 54.087,63.891 v 83.158 h -45.636 v -80.116 c 0,-16.227 -7.775,-25.354 -24.001,-25.354 -18.255,0 -29.072,10.142 -29.072,28.396 V 546.03 H 653.976 V 315.962 z"
       id="path59"
       inkscape:connector-curvature="0"
       style="fill:#777777" /><path
       d="m 833.474,491.942 v -52.059 h -21.297 v -37.861 h 21.297 v -75.045 h 45.298 v 75.045 h 36.847 v 37.861 h -36.847 v 53.411 c 0,14.535 4.732,17.578 11.831,17.578 7.438,0 12.846,-4.057 15.888,-6.085 l 17.24,31.776 c -7.099,5.746 -19.268,13.184 -40.227,13.184 -29.072,0.001 -50.03,-14.535 -50.03,-57.805 z"
       id="path61"
       inkscape:connector-curvature="0"
       style="fill:#777777" /><path
       d="m 956.685,491.942 v -52.059 h -21.297 v -37.861 h 21.297 v -75.045 h 45.298 v 75.045 h 36.847 v 37.861 h -36.847 v 53.411 c 0,14.535 4.732,17.578 11.831,17.578 7.438,0 12.846,-4.057 15.888,-6.085 l 17.24,31.776 c -7.099,5.746 -19.268,13.184 -40.227,13.184 -29.072,0.001 -50.03,-14.535 -50.03,-57.805 z"
       id="path63"
       inkscape:connector-curvature="0"
       style="fill:#777777" /><path
       d="m 1069.518,402.022 h 45.636 l -1.014,22.312 c 8.789,-15.55 24.001,-25.354 46.312,-25.354 34.818,0 64.229,30.424 64.229,74.708 0,44.283 -30.086,75.383 -65.242,75.383 -21.973,0 -36.847,-9.127 -44.284,-22.311 v 90.934 h -45.636 V 402.022 z m 108.173,71.666 c 0,-21.297 -12.169,-34.48 -31.438,-34.48 -19.606,0 -32.452,13.184 -32.452,34.48 0,22.648 12.846,35.494 32.452,35.494 19.269,10e-4 31.438,-12.845 31.438,-35.494 z"
       id="path65"
       inkscape:connector-curvature="0"
       style="fill:#777777" /></g></svg>